<mxfile host="Electron" agent="Mozilla/5.0 (Windows NT 10.0; Win64; x64) AppleWebKit/537.36 (KHTML, like Gecko) draw.io/27.0.9 Chrome/134.0.6998.205 Electron/35.4.0 Safari/537.36" version="27.0.9">
  <diagram name="Page-1" id="-3GfilGTaR90cYOSTtcZ">
    <mxGraphModel dx="727" dy="441" grid="1" gridSize="10" guides="1" tooltips="1" connect="1" arrows="1" fold="1" page="1" pageScale="1" pageWidth="827" pageHeight="1169" math="0" shadow="0">
      <root>
        <mxCell id="0" />
        <mxCell id="1" parent="0" />
        <mxCell id="saLwknA0GXNG7D1MmVOP-2" value="" style="rounded=0;whiteSpace=wrap;html=1;fillColor=none;" parent="1" vertex="1">
          <mxGeometry x="350" y="360" width="370" height="360" as="geometry" />
        </mxCell>
        <mxCell id="8ibs3BHVswqHg6Q69FxU-11" style="edgeStyle=orthogonalEdgeStyle;rounded=0;orthogonalLoop=1;jettySize=auto;html=1;entryX=1;entryY=0.5;entryDx=0;entryDy=0;" parent="1" source="fY_PDfn8Z0zGqyVEPL1E-17" target="fY_PDfn8Z0zGqyVEPL1E-24" edge="1">
          <mxGeometry relative="1" as="geometry">
            <Array as="points">
              <mxPoint x="330" y="670" />
              <mxPoint x="330" y="520" />
            </Array>
          </mxGeometry>
        </mxCell>
        <mxCell id="fY_PDfn8Z0zGqyVEPL1E-23" value="" style="group;verticalAlign=top;align=left;" parent="1" vertex="1" connectable="0">
          <mxGeometry x="360" y="370" width="160" height="60" as="geometry" />
        </mxCell>
        <mxCell id="saLwknA0GXNG7D1MmVOP-8" value="&lt;i&gt;Data Selection&lt;/i&gt;" style="rounded=0;whiteSpace=wrap;html=1;fillColor=none;" parent="fY_PDfn8Z0zGqyVEPL1E-23" vertex="1">
          <mxGeometry width="160" height="20" as="geometry" />
        </mxCell>
        <mxCell id="saLwknA0GXNG7D1MmVOP-9" value="&lt;ul style=&quot;padding-left: 16px;&quot;&gt;&lt;li&gt;&lt;i style=&quot;background-color: transparent; color: light-dark(rgb(0, 0, 0), rgb(255, 255, 255));&quot;&gt;Data&amp;nbsp;Acquisition&lt;/i&gt;&lt;/li&gt;&lt;li&gt;&lt;i style=&quot;background-color: transparent; color: light-dark(rgb(0, 0, 0), rgb(255, 255, 255));&quot;&gt;Competition Selection&lt;/i&gt;&lt;/li&gt;&lt;/ul&gt;" style="rounded=0;whiteSpace=wrap;html=1;fillColor=none;align=left;verticalAlign=middle;labelPosition=center;verticalLabelPosition=middle;" parent="fY_PDfn8Z0zGqyVEPL1E-23" vertex="1">
          <mxGeometry y="20" width="160" height="40" as="geometry" />
        </mxCell>
        <mxCell id="fY_PDfn8Z0zGqyVEPL1E-27" style="edgeStyle=orthogonalEdgeStyle;rounded=0;orthogonalLoop=1;jettySize=auto;html=1;" parent="1" source="fY_PDfn8Z0zGqyVEPL1E-24" target="fY_PDfn8Z0zGqyVEPL1E-25" edge="1">
          <mxGeometry relative="1" as="geometry" />
        </mxCell>
        <mxCell id="fY_PDfn8Z0zGqyVEPL1E-24" value="Interpretasi Hasil" style="rounded=0;whiteSpace=wrap;html=1;fillColor=none;" parent="1" vertex="1">
          <mxGeometry x="190" y="490" width="120" height="60" as="geometry" />
        </mxCell>
        <mxCell id="_rzOTB0SLPU54-YsaPOa-13" value="" style="edgeStyle=orthogonalEdgeStyle;rounded=0;orthogonalLoop=1;jettySize=auto;html=1;" parent="1" source="fY_PDfn8Z0zGqyVEPL1E-25" target="_rzOTB0SLPU54-YsaPOa-12" edge="1">
          <mxGeometry relative="1" as="geometry" />
        </mxCell>
        <mxCell id="fY_PDfn8Z0zGqyVEPL1E-25" value="Implikasi Penelitian" style="rounded=0;whiteSpace=wrap;html=1;fillColor=none;" parent="1" vertex="1">
          <mxGeometry x="190" y="570" width="120" height="60" as="geometry" />
        </mxCell>
        <mxCell id="_rzOTB0SLPU54-YsaPOa-1" value="" style="group;labelPosition=center;verticalLabelPosition=top;align=center;verticalAlign=bottom;" parent="1" vertex="1" connectable="0">
          <mxGeometry x="375" y="250" width="130" height="80" as="geometry" />
        </mxCell>
        <mxCell id="_rzOTB0SLPU54-YsaPOa-2" value="Studi Pendahuluan" style="rounded=0;whiteSpace=wrap;html=1;fillColor=none;" parent="_rzOTB0SLPU54-YsaPOa-1" vertex="1">
          <mxGeometry y="12.86" width="130" height="17.142857142857142" as="geometry" />
        </mxCell>
        <mxCell id="_rzOTB0SLPU54-YsaPOa-3" value="&lt;ul style=&quot;padding-left: 16px;&quot;&gt;&lt;li&gt;&lt;span style=&quot;background-color: transparent; color: light-dark(rgb(0, 0, 0), rgb(255, 255, 255));&quot;&gt;Studi Literatur&lt;/span&gt;&lt;/li&gt;&lt;li&gt;&lt;span style=&quot;background-color: transparent; color: light-dark(rgb(0, 0, 0), rgb(255, 255, 255));&quot;&gt;Identifikasi Masalah&lt;/span&gt;&lt;/li&gt;&lt;li&gt;&lt;span style=&quot;background-color: transparent; color: light-dark(rgb(0, 0, 0), rgb(255, 255, 255));&quot;&gt;&lt;span style=&quot;text-align: center;&quot;&gt;Rumusan Masalah&lt;/span&gt;&lt;/span&gt;&lt;/li&gt;&lt;/ul&gt;" style="rounded=0;whiteSpace=wrap;html=1;fillColor=none;align=center;verticalAlign=middle;labelPosition=center;verticalLabelPosition=middle;" parent="_rzOTB0SLPU54-YsaPOa-1" vertex="1">
          <mxGeometry y="30" width="130" height="50" as="geometry" />
        </mxCell>
        <mxCell id="_rzOTB0SLPU54-YsaPOa-12" value="Kesimpulan dan saran" style="rounded=0;whiteSpace=wrap;html=1;fillColor=none;" parent="1" vertex="1">
          <mxGeometry x="190" y="650" width="120" height="60" as="geometry" />
        </mxCell>
        <mxCell id="_rzOTB0SLPU54-YsaPOa-14" value="KDD" style="text;html=1;align=center;verticalAlign=middle;whiteSpace=wrap;rounded=0;fontSize=16;" parent="1" vertex="1">
          <mxGeometry x="655" y="670" width="60" height="30" as="geometry" />
        </mxCell>
        <mxCell id="8ibs3BHVswqHg6Q69FxU-8" style="edgeStyle=orthogonalEdgeStyle;rounded=0;orthogonalLoop=1;jettySize=auto;html=1;entryX=0.5;entryY=0;entryDx=0;entryDy=0;" parent="1" source="saLwknA0GXNG7D1MmVOP-14" target="fY_PDfn8Z0zGqyVEPL1E-1" edge="1">
          <mxGeometry relative="1" as="geometry" />
        </mxCell>
        <mxCell id="8ibs3BHVswqHg6Q69FxU-10" style="edgeStyle=orthogonalEdgeStyle;rounded=0;orthogonalLoop=1;jettySize=auto;html=1;entryX=0.5;entryY=0;entryDx=0;entryDy=0;" parent="1" source="8ibs3BHVswqHg6Q69FxU-4" target="fY_PDfn8Z0zGqyVEPL1E-16" edge="1">
          <mxGeometry relative="1" as="geometry" />
        </mxCell>
        <mxCell id="x90xQHIDrnF--X3xd8_h-1" style="edgeStyle=orthogonalEdgeStyle;rounded=0;orthogonalLoop=1;jettySize=auto;html=1;entryX=0.5;entryY=0;entryDx=0;entryDy=0;" edge="1" parent="1" source="_rzOTB0SLPU54-YsaPOa-3" target="saLwknA0GXNG7D1MmVOP-8">
          <mxGeometry relative="1" as="geometry" />
        </mxCell>
        <mxCell id="x90xQHIDrnF--X3xd8_h-2" value="" style="endArrow=classic;html=1;rounded=0;entryX=0.008;entryY=0.451;entryDx=0;entryDy=0;entryPerimeter=0;exitX=1;exitY=0.474;exitDx=0;exitDy=0;exitPerimeter=0;" edge="1" parent="1" source="saLwknA0GXNG7D1MmVOP-9" target="saLwknA0GXNG7D1MmVOP-14">
          <mxGeometry width="50" height="50" relative="1" as="geometry">
            <mxPoint x="410" y="450" as="sourcePoint" />
            <mxPoint x="460" y="400" as="targetPoint" />
          </mxGeometry>
        </mxCell>
        <mxCell id="x90xQHIDrnF--X3xd8_h-3" value="" style="group;align=left;" vertex="1" connectable="0" parent="1">
          <mxGeometry x="560" y="366" width="150" height="70" as="geometry" />
        </mxCell>
        <mxCell id="saLwknA0GXNG7D1MmVOP-13" value="&lt;i&gt;Data Preprocessing&lt;/i&gt;" style="rounded=0;whiteSpace=wrap;html=1;fillColor=none;verticalAlign=middle;labelPosition=center;verticalLabelPosition=middle;align=center;" parent="x90xQHIDrnF--X3xd8_h-3" vertex="1">
          <mxGeometry width="150" height="20" as="geometry" />
        </mxCell>
        <mxCell id="saLwknA0GXNG7D1MmVOP-14" value="&lt;ul style=&quot;padding-left: 16px;&quot;&gt;&lt;li&gt;&lt;i&gt;Data Collection&lt;/i&gt;&lt;/li&gt;&lt;li&gt;&lt;i&gt;Column Selection&lt;/i&gt;&lt;/li&gt;&lt;li&gt;&lt;i&gt;Data&amp;nbsp;Cleansing&lt;/i&gt;&lt;/li&gt;&lt;/ul&gt;" style="rounded=0;fillColor=none;align=left;verticalAlign=middle;html=1;labelPosition=center;verticalLabelPosition=middle;" parent="x90xQHIDrnF--X3xd8_h-3" vertex="1">
          <mxGeometry y="20" width="150" height="50" as="geometry" />
        </mxCell>
        <mxCell id="x90xQHIDrnF--X3xd8_h-5" value="" style="group" vertex="1" connectable="0" parent="1">
          <mxGeometry x="360" y="480" width="160" height="80" as="geometry" />
        </mxCell>
        <mxCell id="8ibs3BHVswqHg6Q69FxU-4" value="&lt;ul style=&quot;padding-left: 16px;&quot;&gt;&lt;li&gt;&lt;i&gt;Model Initialization&lt;/i&gt;&lt;/li&gt;&lt;li&gt;&lt;i&gt;Hyperparameter Tuning&lt;/i&gt;&lt;/li&gt;&lt;li&gt;&lt;i&gt;Model Calibration&lt;/i&gt;&lt;/li&gt;&lt;li&gt;&lt;i&gt;Visualization&lt;/i&gt;&lt;/li&gt;&lt;/ul&gt;" style="rounded=0;whiteSpace=wrap;html=1;fillColor=none;verticalAlign=middle;align=left;labelPosition=center;verticalLabelPosition=middle;" parent="x90xQHIDrnF--X3xd8_h-5" vertex="1">
          <mxGeometry y="20" width="160" height="60" as="geometry" />
        </mxCell>
        <mxCell id="8ibs3BHVswqHg6Q69FxU-5" value="&lt;i&gt;Data Mining&lt;/i&gt;" style="rounded=0;whiteSpace=wrap;html=1;fillColor=none;" parent="x90xQHIDrnF--X3xd8_h-5" vertex="1">
          <mxGeometry width="160" height="20" as="geometry" />
        </mxCell>
        <mxCell id="x90xQHIDrnF--X3xd8_h-6" style="rounded=0;orthogonalLoop=1;jettySize=auto;html=1;entryX=1;entryY=0.422;entryDx=0;entryDy=0;entryPerimeter=0;" edge="1" parent="1" source="fY_PDfn8Z0zGqyVEPL1E-4" target="8ibs3BHVswqHg6Q69FxU-4">
          <mxGeometry relative="1" as="geometry" />
        </mxCell>
        <mxCell id="x90xQHIDrnF--X3xd8_h-7" value="" style="group" vertex="1" connectable="0" parent="1">
          <mxGeometry x="360" y="610" width="160" height="100" as="geometry" />
        </mxCell>
        <mxCell id="fY_PDfn8Z0zGqyVEPL1E-16" value="&lt;i&gt;Evaluation&lt;/i&gt;" style="rounded=0;whiteSpace=wrap;html=1;fillColor=none;" parent="x90xQHIDrnF--X3xd8_h-7" vertex="1">
          <mxGeometry width="160" height="20" as="geometry" />
        </mxCell>
        <mxCell id="fY_PDfn8Z0zGqyVEPL1E-17" value="&lt;ul style=&quot;padding-left: 16px;&quot;&gt;&lt;li&gt;ROC AUC&lt;/li&gt;&lt;li&gt;&lt;i&gt;Brier Score&lt;/i&gt;&lt;/li&gt;&lt;li&gt;&lt;span style=&quot;&quot;&gt;Presisi&lt;/span&gt;&lt;/li&gt;&lt;li&gt;&lt;span style=&quot;&quot;&gt;&lt;i&gt;F1-Score&lt;/i&gt;&lt;/span&gt;&lt;/li&gt;&lt;li&gt;&lt;span style=&quot;&quot;&gt;&lt;i&gt;Recall&lt;/i&gt;&lt;/span&gt;&lt;/li&gt;&lt;/ul&gt;" style="rounded=0;whiteSpace=wrap;html=1;fillColor=none;align=left;verticalAlign=middle;labelPosition=center;verticalLabelPosition=middle;" parent="x90xQHIDrnF--X3xd8_h-7" vertex="1">
          <mxGeometry y="20" width="160" height="80" as="geometry" />
        </mxCell>
        <mxCell id="fY_PDfn8Z0zGqyVEPL1E-4" value="&lt;ul style=&quot;padding-left: 16px;&quot;&gt;&lt;li&gt;&lt;i&gt;Feature Engineering&lt;/i&gt;&lt;/li&gt;&lt;li&gt;&lt;i&gt;Splitting of Training Data and Test Data&lt;/i&gt;&lt;/li&gt;&lt;/ul&gt;" style="rounded=0;whiteSpace=wrap;html=1;fillColor=none;verticalAlign=middle;align=left;labelPosition=center;verticalLabelPosition=middle;" parent="1" vertex="1">
          <mxGeometry x="555" y="500" width="160" height="50" as="geometry" />
        </mxCell>
        <mxCell id="fY_PDfn8Z0zGqyVEPL1E-1" value="&lt;i&gt;Data&amp;nbsp;Tranformation&lt;/i&gt;" style="rounded=0;whiteSpace=wrap;html=1;fillColor=none;" parent="1" vertex="1">
          <mxGeometry x="555" y="480" width="160" height="20" as="geometry" />
        </mxCell>
      </root>
    </mxGraphModel>
  </diagram>
</mxfile>
